<svg width="15" height="15" viewBox="0 0 15 15" fill="none" xmlns="http://www.w3.org/2000/svg">
<g clip-path="url(#clip0)">
<path d="M12.6185 6.9133C12.6204 7.70418 12.4444 8.48437 12.1046 9.19032C11.7017 10.0363 11.0824 10.7478 10.316 11.2452C9.54953 11.7426 8.66628 12.0063 7.76513 12.0066C7.01152 12.0087 6.26809 11.8239 5.59541 11.4673L2.34082 12.6058L3.42568 9.19032C3.08591 8.48437 2.90984 7.70418 2.9118 6.9133C2.91215 5.96759 3.16338 5.04066 3.63736 4.23633C4.11133 3.432 4.78933 2.78204 5.59541 2.35926C6.26809 2.00268 7.01152 1.8179 7.76513 1.81996H8.05062C9.24075 1.88887 10.3648 2.41604 11.2077 3.30054C12.0505 4.18504 12.5528 5.36471 12.6185 6.61369V6.9133Z" stroke="#6C63FF" stroke-width="2" stroke-linecap="round" stroke-linejoin="round"/>
</g>
<defs>
<clipPath id="clip0">
<rect x="0.62793" y="0.0223389" width="13.7035" height="14.3812" fill="white"/>
</clipPath>
</defs>
</svg>
