<svg width="15" height="15" viewBox="0 0 15 15" fill="none" xmlns="http://www.w3.org/2000/svg">
<g clip-path="url(#clip0)">
<path d="M4.69133 13.2051H2.97839C2.67552 13.2051 2.38506 13.0788 2.1709 12.8541C1.95674 12.6293 1.83643 12.3245 1.83643 12.0066V7.81214C1.83643 7.49429 1.95674 7.18947 2.1709 6.96472C2.38506 6.73997 2.67552 6.61371 2.97839 6.61371H4.69133M8.68819 5.41527V3.01841C8.68819 2.54165 8.50772 2.08441 8.18648 1.74728C7.86524 1.41016 7.42955 1.22076 6.97525 1.22076L4.69133 6.61371V13.2051H11.132C11.4074 13.2083 11.6746 13.107 11.8845 12.9199C12.0943 12.7327 12.2327 12.4722 12.2739 12.1864L13.0619 6.79347C13.0867 6.62171 13.0757 6.44633 13.0295 6.27949C12.9834 6.11265 12.9032 5.95834 12.7946 5.82724C12.686 5.69615 12.5515 5.5914 12.4005 5.52027C12.2494 5.44913 12.0855 5.41331 11.9199 5.41527H8.68819Z" stroke="#6C63FF" stroke-width="2" stroke-linecap="round" stroke-linejoin="round"/>
</g>
<defs>
<clipPath id="clip0">
<rect x="0.694336" y="0.0223389" width="13.7035" height="14.3812" fill="white"/>
</clipPath>
</defs>
</svg>
