<svg width="425" height="896" viewBox="0 0 425 896" fill="none" xmlns="http://www.w3.org/2000/svg">
<mask id="mask0" mask-type="alpha" maskUnits="userSpaceOnUse" x="0" y="0" width="425" height="896">
<rect width="425" height="896" fill="#6C63FF"/>
</mask>
<g mask="url(#mask0)">
<path d="M493 969.318C493 1027.37 463.112 1083.32 409.221 1126.15C355.33 1168.98 281.34 1195.59 201.821 1200.73C122.301 1205.88 43.0129 1189.19 -20.4321 1153.95C-83.8772 1118.72 -126.882 1067.48 -140.979 1010.34C-155.077 953.203 -139.245 894.294 -96.6013 845.217C-53.9577 796.14 12.4077 760.45 89.4283 745.174C166.449 729.898 248.543 736.143 319.548 762.68C390.553 789.217 445.323 834.123 473.075 888.556L173.5 969.318H493Z" fill="#6C63FF"/>
</g>
</svg>
