<svg width="15" height="15" viewBox="0 0 15 15" fill="none" xmlns="http://www.w3.org/2000/svg">
<g clip-path="url(#clip0)">
<path d="M11.0567 4.81606C12.0027 4.81606 12.7696 4.01122 12.7696 3.01841C12.7696 2.0256 12.0027 1.22076 11.0567 1.22076C10.1107 1.22076 9.34375 2.0256 9.34375 3.01841C9.34375 4.01122 10.1107 4.81606 11.0567 4.81606Z" fill="#6C63FF" stroke="#6C63FF" stroke-linecap="round" stroke-linejoin="round"/>
<path d="M4.20464 9.01058C5.15067 9.01058 5.91758 8.20574 5.91758 7.21293C5.91758 6.22012 5.15067 5.41528 4.20464 5.41528C3.25861 5.41528 2.4917 6.22012 2.4917 7.21293C2.4917 8.20574 3.25861 9.01058 4.20464 9.01058Z" fill="#6C63FF" stroke="#6C63FF" stroke-linecap="round" stroke-linejoin="round"/>
<path d="M11.0567 13.2051C12.0027 13.2051 12.7696 12.4003 12.7696 11.4074C12.7696 10.4146 12.0027 9.6098 11.0567 9.6098C10.1107 9.6098 9.34375 10.4146 9.34375 11.4074C9.34375 12.4003 10.1107 13.2051 11.0567 13.2051Z" fill="#6C63FF" stroke="#6C63FF" stroke-linecap="round" stroke-linejoin="round"/>
<path d="M5.68359 8.1178L9.58339 10.5027" stroke="#6C63FF" stroke-linecap="round" stroke-linejoin="round"/>
<path d="M9.57768 3.92331L5.68359 6.30819" stroke="#6C63FF" stroke-linecap="round" stroke-linejoin="round"/>
</g>
<defs>
<clipPath id="clip0">
<rect x="0.778809" y="0.0223389" width="13.7035" height="14.3812" fill="white"/>
</clipPath>
</defs>
</svg>
